<svg width="453" height="138" viewBox="0 0 453 138" fill="none" xmlns="http://www.w3.org/2000/svg">
<path d="M1.5 95.0901C-0.500003 93.9354 -0.500001 91.0487 1.5 89.894L27.7381 74.7454C29.7381 73.5907 32.2381 75.0341 32.2381 77.3435L32.2381 107.641C32.2381 109.95 29.7381 111.393 27.7381 110.239L1.5 95.0901Z" fill="#56CCF2"/>
<path d="M129.056 122.106C127.056 120.951 127.056 118.065 129.056 116.91L155.294 101.761C157.294 100.607 159.794 102.05 159.794 104.359L159.794 134.657C159.794 136.966 157.294 138.409 155.294 137.255L129.056 122.106Z" fill="#56CCF2"/>
<path d="M152.255 91.8627C154.23 93.0221 154.23 95.8773 152.255 97.0368L126.53 112.141C124.53 113.315 122.011 111.873 122.011 109.554L122.011 79.3453C122.011 77.0261 124.53 75.584 126.53 76.7582L152.255 91.8627Z" fill="#56CCF2"/>
<path d="M152.255 40.9632C154.23 42.1227 154.23 44.9779 152.255 46.1373L126.53 61.2418C124.53 62.416 122.011 60.9739 122.011 58.6547L122.011 28.4458C122.011 26.1267 124.53 24.6845 126.53 25.8588L152.255 40.9632Z" fill="#56CCF2"/>
<path d="M108.403 66.8045C110.378 67.9639 110.378 70.8191 108.403 71.9786L82.6777 87.083C80.6778 88.2573 78.1587 86.8151 78.1587 84.496L78.1587 54.2871C78.1587 51.9679 80.6778 50.5258 82.6777 51.7001L108.403 66.8045Z" fill="#56CCF2"/>
<path d="M85.2037 97.0478C83.2037 95.8931 83.2037 93.0064 85.2037 91.8517L111.442 76.7031C113.442 75.5484 115.942 76.9918 115.942 79.3012L115.942 109.598C115.942 111.908 113.442 113.351 111.442 112.196L85.2037 97.0478Z" fill="#56CCF2"/>
<path d="M129.056 71.9896C127.056 70.8349 127.056 67.9482 129.056 66.7935L155.294 51.6449C157.294 50.4902 159.794 51.9336 159.794 54.243L159.794 84.5401C159.794 86.8495 157.294 88.2929 155.294 87.1382L129.056 71.9896Z" fill="#56CCF2"/>
<path d="M129.056 21.0901C127.056 19.9354 127.056 17.0487 129.056 15.894L155.294 0.74542C157.294 -0.40928 159.794 1.0341 159.794 3.3435L159.794 33.6406C159.794 35.95 157.294 37.3934 155.294 36.2387L129.056 21.0901Z" fill="#56CCF2"/>
<path d="M85.2037 46.1483C83.2037 44.9936 83.2037 42.1069 85.2037 40.9522L111.442 25.8036C113.442 24.6489 115.942 26.0923 115.942 28.4017L115.942 58.6988C115.942 61.0082 113.442 62.4516 111.442 61.2969L85.2037 46.1483Z" fill="#56CCF2"/>
<path d="M41.3519 71.9896C39.3519 70.8349 39.3519 67.9482 41.3519 66.7935L67.59 51.6449C69.59 50.4902 72.09 51.9336 72.09 54.243L72.09 84.5401C72.09 86.8495 69.59 88.2929 67.59 87.1382L41.3519 71.9896Z" fill="#56CCF2"/>
<path d="M174.988 58V34.456H181.288C184.888 34.456 187.696 35.428 189.712 37.372C191.728 39.316 192.736 42.232 192.736 46.12C192.736 48.064 192.472 49.78 191.944 51.268C191.44 52.756 190.696 54.004 189.712 55.012C188.752 55.996 187.576 56.74 186.184 57.244C184.816 57.748 183.256 58 181.504 58H174.988ZM179.164 54.616H181C183.4 54.616 185.236 53.932 186.508 52.564C187.804 51.172 188.452 49.024 188.452 46.12C188.452 43.24 187.804 41.14 186.508 39.82C185.212 38.5 183.376 37.84 181 37.84H179.164V54.616ZM204.688 58.432C203.464 58.432 202.324 58.228 201.268 57.82C200.212 57.388 199.288 56.776 198.496 55.984C197.704 55.192 197.08 54.232 196.624 53.104C196.192 51.952 195.976 50.644 195.976 49.18C195.976 47.74 196.204 46.444 196.66 45.292C197.116 44.14 197.716 43.168 198.46 42.376C199.228 41.584 200.104 40.972 201.088 40.54C202.072 40.108 203.08 39.892 204.112 39.892C205.312 39.892 206.368 40.096 207.28 40.504C208.192 40.912 208.948 41.488 209.548 42.232C210.172 42.976 210.64 43.864 210.952 44.896C211.264 45.928 211.42 47.056 211.42 48.28C211.42 48.688 211.396 49.072 211.348 49.432C211.324 49.792 211.288 50.08 211.24 50.296H200.008C200.2 51.88 200.752 53.104 201.664 53.968C202.6 54.808 203.788 55.228 205.228 55.228C205.996 55.228 206.704 55.12 207.352 54.904C208.024 54.664 208.684 54.34 209.332 53.932L210.736 56.524C209.896 57.076 208.96 57.532 207.928 57.892C206.896 58.252 205.816 58.432 204.688 58.432ZM199.972 47.488H207.82C207.82 46.12 207.52 45.052 206.92 44.284C206.344 43.492 205.444 43.096 204.22 43.096C203.164 43.096 202.24 43.468 201.448 44.212C200.656 44.956 200.164 46.048 199.972 47.488ZM219.406 58.432C217.918 58.432 216.874 57.988 216.274 57.1C215.674 56.212 215.374 55 215.374 53.464V32.584H219.514V53.68C219.514 54.184 219.61 54.544 219.802 54.76C219.994 54.952 220.198 55.048 220.414 55.048C220.51 55.048 220.594 55.048 220.666 55.048C220.762 55.048 220.894 55.024 221.062 54.976L221.602 58.072C221.05 58.312 220.318 58.432 219.406 58.432ZM229.432 58.432C227.872 58.432 226.612 57.964 225.652 57.028C224.692 56.068 224.212 54.808 224.212 53.248C224.212 52.312 224.404 51.484 224.788 50.764C225.196 50.02 225.82 49.384 226.66 48.856C227.524 48.328 228.604 47.884 229.9 47.524C231.22 47.164 232.792 46.888 234.616 46.696C234.592 46.24 234.52 45.808 234.4 45.4C234.304 44.968 234.124 44.596 233.86 44.284C233.62 43.948 233.296 43.696 232.888 43.528C232.48 43.336 231.976 43.24 231.376 43.24C230.512 43.24 229.66 43.408 228.82 43.744C228.004 44.08 227.2 44.488 226.408 44.968L224.896 42.196C225.88 41.572 226.984 41.032 228.208 40.576C229.432 40.12 230.752 39.892 232.168 39.892C234.376 39.892 236.02 40.552 237.1 41.872C238.204 43.168 238.756 45.052 238.756 47.524V58H235.336L235.048 56.056H234.904C234.112 56.728 233.26 57.292 232.348 57.748C231.46 58.204 230.488 58.432 229.432 58.432ZM230.764 55.192C231.484 55.192 232.132 55.024 232.708 54.688C233.308 54.352 233.944 53.872 234.616 53.248V49.288C233.416 49.432 232.408 49.624 231.592 49.864C230.776 50.104 230.116 50.38 229.612 50.692C229.108 50.98 228.748 51.316 228.532 51.7C228.316 52.084 228.208 52.492 228.208 52.924C228.208 53.716 228.448 54.292 228.928 54.652C229.408 55.012 230.02 55.192 230.764 55.192ZM244.898 65.272C244.418 65.272 243.998 65.236 243.638 65.164C243.278 65.116 242.93 65.032 242.594 64.912L243.35 61.672C243.518 61.72 243.71 61.768 243.926 61.816C244.166 61.888 244.394 61.924 244.61 61.924C245.546 61.924 246.29 61.636 246.842 61.06C247.418 60.508 247.85 59.788 248.138 58.9L248.462 57.784L241.514 40.324H245.726L248.786 49C249.05 49.768 249.302 50.584 249.542 51.448C249.806 52.288 250.07 53.128 250.334 53.968H250.478C250.694 53.152 250.91 52.324 251.126 51.484C251.366 50.62 251.594 49.792 251.81 49L254.474 40.324H258.47L252.062 58.792C251.702 59.8 251.306 60.7 250.874 61.492C250.442 62.284 249.938 62.956 249.362 63.508C248.81 64.084 248.162 64.516 247.418 64.804C246.698 65.116 245.858 65.272 244.898 65.272ZM267.69 65.812C266.634 65.812 265.65 65.716 264.738 65.524C263.85 65.332 263.082 65.044 262.434 64.66C261.786 64.276 261.27 63.796 260.886 63.22C260.526 62.644 260.346 61.972 260.346 61.204C260.346 60.46 260.562 59.764 260.994 59.116C261.426 58.492 262.05 57.928 262.866 57.424V57.28C262.41 56.992 262.026 56.608 261.714 56.128C261.426 55.648 261.282 55.048 261.282 54.328C261.282 53.632 261.474 53.008 261.858 52.456C262.266 51.88 262.722 51.412 263.226 51.052V50.908C262.626 50.452 262.086 49.828 261.606 49.036C261.15 48.22 260.922 47.284 260.922 46.228C260.922 45.22 261.114 44.32 261.498 43.528C261.882 42.736 262.386 42.076 263.01 41.548C263.658 40.996 264.402 40.588 265.242 40.324C266.082 40.036 266.97 39.892 267.906 39.892C268.386 39.892 268.842 39.94 269.274 40.036C269.73 40.108 270.138 40.204 270.498 40.324H276.834V43.384H273.594C273.882 43.72 274.122 44.152 274.314 44.68C274.506 45.184 274.602 45.748 274.602 46.372C274.602 47.356 274.422 48.22 274.062 48.964C273.726 49.708 273.258 50.332 272.658 50.836C272.058 51.34 271.35 51.724 270.534 51.988C269.718 52.252 268.842 52.384 267.906 52.384C267.522 52.384 267.126 52.348 266.718 52.276C266.31 52.204 265.902 52.084 265.494 51.916C265.23 52.156 265.014 52.396 264.846 52.636C264.702 52.876 264.63 53.2 264.63 53.608C264.63 54.112 264.834 54.508 265.242 54.796C265.674 55.084 266.43 55.228 267.51 55.228H270.642C272.778 55.228 274.386 55.576 275.466 56.272C276.57 56.944 277.122 58.048 277.122 59.584C277.122 60.448 276.894 61.264 276.438 62.032C276.006 62.8 275.382 63.46 274.566 64.012C273.75 64.564 272.754 64.996 271.578 65.308C270.426 65.644 269.13 65.812 267.69 65.812ZM267.906 49.792C268.746 49.792 269.466 49.492 270.066 48.892C270.666 48.268 270.966 47.38 270.966 46.228C270.966 45.124 270.666 44.272 270.066 43.672C269.49 43.048 268.77 42.736 267.906 42.736C267.042 42.736 266.31 43.036 265.71 43.636C265.11 44.236 264.81 45.1 264.81 46.228C264.81 47.38 265.11 48.268 265.71 48.892C266.31 49.492 267.042 49.792 267.906 49.792ZM268.338 63.112C269.778 63.112 270.93 62.824 271.794 62.248C272.682 61.696 273.126 61.036 273.126 60.268C273.126 59.572 272.85 59.104 272.298 58.864C271.77 58.624 271.002 58.504 269.994 58.504H267.582C266.622 58.504 265.818 58.42 265.17 58.252C264.258 58.948 263.802 59.728 263.802 60.592C263.802 61.384 264.198 61.996 264.99 62.428C265.806 62.884 266.922 63.112 268.338 63.112ZM280.237 58V40.324H283.657L283.945 43.456H284.089C284.713 42.304 285.469 41.428 286.357 40.828C287.245 40.204 288.157 39.892 289.093 39.892C289.933 39.892 290.605 40.012 291.109 40.252L290.389 43.852C290.077 43.756 289.789 43.684 289.525 43.636C289.261 43.588 288.937 43.564 288.553 43.564C287.857 43.564 287.125 43.84 286.357 44.392C285.589 44.92 284.929 45.856 284.377 47.2V58H280.237ZM297.002 58.432C295.442 58.432 294.182 57.964 293.222 57.028C292.262 56.068 291.782 54.808 291.782 53.248C291.782 52.312 291.974 51.484 292.358 50.764C292.766 50.02 293.39 49.384 294.23 48.856C295.094 48.328 296.174 47.884 297.47 47.524C298.79 47.164 300.362 46.888 302.186 46.696C302.162 46.24 302.09 45.808 301.97 45.4C301.874 44.968 301.694 44.596 301.43 44.284C301.19 43.948 300.866 43.696 300.458 43.528C300.05 43.336 299.546 43.24 298.946 43.24C298.082 43.24 297.23 43.408 296.39 43.744C295.574 44.08 294.77 44.488 293.978 44.968L292.466 42.196C293.45 41.572 294.554 41.032 295.778 40.576C297.002 40.12 298.322 39.892 299.738 39.892C301.946 39.892 303.59 40.552 304.67 41.872C305.774 43.168 306.326 45.052 306.326 47.524V58H302.906L302.618 56.056H302.474C301.682 56.728 300.83 57.292 299.918 57.748C299.03 58.204 298.058 58.432 297.002 58.432ZM298.334 55.192C299.054 55.192 299.702 55.024 300.278 54.688C300.878 54.352 301.514 53.872 302.186 53.248V49.288C300.986 49.432 299.978 49.624 299.162 49.864C298.346 50.104 297.686 50.38 297.182 50.692C296.678 50.98 296.318 51.316 296.102 51.7C295.886 52.084 295.778 52.492 295.778 52.924C295.778 53.716 296.018 54.292 296.498 54.652C296.978 55.012 297.59 55.192 298.334 55.192ZM311.28 58V40.324H314.7L314.988 42.736H315.132C315.876 41.944 316.68 41.272 317.544 40.72C318.432 40.168 319.428 39.892 320.532 39.892C321.828 39.892 322.86 40.168 323.628 40.72C324.42 41.272 325.02 42.052 325.428 43.06C326.268 42.148 327.144 41.392 328.056 40.792C328.968 40.192 329.988 39.892 331.116 39.892C332.988 39.892 334.368 40.504 335.256 41.728C336.144 42.928 336.588 44.656 336.588 46.912V58H332.412V47.452C332.412 45.988 332.184 44.956 331.728 44.356C331.296 43.756 330.624 43.456 329.712 43.456C328.608 43.456 327.372 44.188 326.004 45.652V58H321.864V47.452C321.864 45.988 321.636 44.956 321.18 44.356C320.748 43.756 320.064 43.456 319.128 43.456C318.024 43.456 316.788 44.188 315.42 45.652V58H311.28Z" fill="black"/>
<path d="M181.684 107.432C179.956 107.432 178.42 107.108 177.076 106.46C175.732 105.788 174.592 104.924 173.656 103.868L174.736 102.716C175.6 103.7 176.632 104.48 177.832 105.056C179.032 105.632 180.316 105.92 181.684 105.92C183.508 105.92 184.948 105.488 186.004 104.624C187.06 103.736 187.588 102.584 187.588 101.168C187.588 100.424 187.468 99.8 187.228 99.296C187.012 98.768 186.712 98.324 186.328 97.964C185.944 97.58 185.488 97.256 184.96 96.992C184.456 96.728 183.916 96.464 183.34 96.2L179.74 94.58C179.236 94.364 178.696 94.1 178.12 93.788C177.544 93.476 177.016 93.092 176.536 92.636C176.08 92.156 175.696 91.604 175.384 90.98C175.072 90.332 174.916 89.564 174.916 88.676C174.916 87.812 175.084 87.032 175.42 86.336C175.78 85.616 176.26 85.004 176.86 84.5C177.484 83.972 178.216 83.564 179.056 83.276C179.92 82.988 180.844 82.844 181.828 82.844C183.268 82.844 184.54 83.132 185.644 83.708C186.772 84.26 187.696 84.92 188.416 85.688L187.48 86.768C186.784 86.048 185.968 85.472 185.032 85.04C184.096 84.584 183.028 84.356 181.828 84.356C180.244 84.356 178.972 84.74 178.012 85.508C177.052 86.276 176.572 87.308 176.572 88.604C176.572 89.3 176.704 89.888 176.968 90.368C177.232 90.848 177.568 91.268 177.976 91.628C178.384 91.964 178.828 92.264 179.308 92.528C179.788 92.768 180.244 92.984 180.676 93.176L184.276 94.76C184.948 95.048 185.584 95.372 186.184 95.732C186.784 96.092 187.312 96.512 187.768 96.992C188.224 97.472 188.584 98.048 188.848 98.72C189.136 99.368 189.28 100.148 189.28 101.06C189.28 101.972 189.1 102.824 188.74 103.616C188.38 104.384 187.864 105.056 187.192 105.632C186.544 106.184 185.752 106.628 184.816 106.964C183.88 107.276 182.836 107.432 181.684 107.432ZM200.385 107.432C199.353 107.432 198.369 107.228 197.433 106.82C196.497 106.412 195.669 105.824 194.949 105.056C194.253 104.288 193.689 103.352 193.257 102.248C192.849 101.12 192.645 99.836 192.645 98.396C192.645 96.956 192.849 95.672 193.257 94.544C193.689 93.392 194.253 92.432 194.949 91.664C195.669 90.896 196.497 90.308 197.433 89.9C198.369 89.492 199.353 89.288 200.385 89.288C201.417 89.288 202.401 89.492 203.337 89.9C204.297 90.308 205.125 90.896 205.821 91.664C206.541 92.432 207.105 93.392 207.513 94.544C207.945 95.672 208.161 96.956 208.161 98.396C208.161 99.836 207.945 101.12 207.513 102.248C207.105 103.352 206.541 104.288 205.821 105.056C205.125 105.824 204.297 106.412 203.337 106.82C202.401 107.228 201.417 107.432 200.385 107.432ZM200.385 106.028C201.249 106.028 202.053 105.848 202.797 105.488C203.565 105.104 204.213 104.576 204.741 103.904C205.293 103.232 205.725 102.428 206.037 101.492C206.349 100.556 206.505 99.524 206.505 98.396C206.505 97.244 206.349 96.2 206.037 95.264C205.725 94.328 205.293 93.524 204.741 92.852C204.213 92.156 203.565 91.628 202.797 91.268C202.053 90.884 201.249 90.692 200.385 90.692C199.521 90.692 198.717 90.884 197.973 91.268C197.229 91.628 196.581 92.156 196.029 92.852C195.501 93.524 195.081 94.328 194.769 95.264C194.457 96.2 194.301 97.244 194.301 98.396C194.301 99.524 194.457 100.556 194.769 101.492C195.081 102.428 195.501 103.232 196.029 103.904C196.581 104.576 197.229 105.104 197.973 105.488C198.717 105.848 199.521 106.028 200.385 106.028ZM219.759 107.432C218.631 107.432 217.587 107.228 216.627 106.82C215.691 106.412 214.863 105.824 214.143 105.056C213.447 104.288 212.895 103.352 212.487 102.248C212.103 101.12 211.911 99.836 211.911 98.396C211.911 96.956 212.127 95.672 212.559 94.544C212.991 93.392 213.567 92.432 214.287 91.664C215.007 90.896 215.835 90.308 216.771 89.9C217.731 89.492 218.739 89.288 219.795 89.288C220.995 89.288 221.991 89.504 222.783 89.936C223.575 90.368 224.271 90.86 224.871 91.412L223.935 92.528C223.383 92 222.771 91.568 222.099 91.232C221.427 90.872 220.671 90.692 219.831 90.692C218.943 90.692 218.115 90.884 217.347 91.268C216.603 91.628 215.943 92.156 215.367 92.852C214.815 93.524 214.371 94.328 214.035 95.264C213.723 96.2 213.567 97.244 213.567 98.396C213.567 99.524 213.711 100.556 213.999 101.492C214.311 102.428 214.731 103.232 215.259 103.904C215.811 104.576 216.471 105.104 217.239 105.488C218.031 105.848 218.895 106.028 219.831 106.028C220.743 106.028 221.583 105.836 222.351 105.452C223.143 105.068 223.839 104.6 224.439 104.048L225.267 105.164C224.523 105.812 223.695 106.352 222.783 106.784C221.871 107.216 220.863 107.432 219.759 107.432ZM229.523 107V89.72H231.107V107H229.523ZM230.351 85.544C229.943 85.544 229.595 85.412 229.307 85.148C229.043 84.884 228.911 84.548 228.911 84.14C228.911 83.684 229.043 83.336 229.307 83.096C229.595 82.832 229.943 82.7 230.351 82.7C230.759 82.7 231.095 82.832 231.359 83.096C231.647 83.336 231.791 83.684 231.791 84.14C231.791 84.548 231.647 84.884 231.359 85.148C231.095 85.412 230.759 85.544 230.351 85.544ZM241.53 107.432C240.834 107.432 240.186 107.336 239.586 107.144C238.986 106.952 238.458 106.664 238.002 106.28C237.546 105.896 237.186 105.404 236.922 104.804C236.658 104.204 236.526 103.496 236.526 102.68C236.526 100.76 237.414 99.308 239.189 98.324C240.99 97.316 243.822 96.596 247.686 96.164C247.686 95.516 247.638 94.868 247.542 94.22C247.446 93.548 247.242 92.96 246.93 92.456C246.618 91.928 246.198 91.508 245.67 91.196C245.142 90.86 244.446 90.692 243.582 90.692C242.43 90.692 241.374 90.92 240.414 91.376C239.454 91.832 238.674 92.276 238.074 92.708L237.354 91.52C237.666 91.304 238.038 91.064 238.47 90.8C238.926 90.536 239.43 90.296 239.982 90.08C240.534 89.864 241.134 89.684 241.782 89.54C242.43 89.372 243.102 89.288 243.798 89.288C244.806 89.288 245.658 89.468 246.354 89.828C247.05 90.164 247.614 90.632 248.046 91.232C248.478 91.832 248.79 92.54 248.982 93.356C249.174 94.148 249.27 95.012 249.27 95.948V107H247.902L247.758 104.768H247.65C246.762 105.464 245.802 106.088 244.77 106.64C243.762 107.168 242.682 107.432 241.53 107.432ZM241.818 106.064C242.826 106.064 243.786 105.824 244.698 105.344C245.61 104.864 246.606 104.168 247.686 103.256V97.388C245.91 97.604 244.41 97.868 243.186 98.18C241.962 98.492 240.978 98.864 240.234 99.296C239.49 99.728 238.95 100.22 238.614 100.772C238.302 101.324 238.146 101.936 238.146 102.608C238.146 103.232 238.242 103.76 238.434 104.192C238.626 104.624 238.89 104.984 239.226 105.272C239.562 105.536 239.946 105.74 240.378 105.884C240.834 106.004 241.314 106.064 241.818 106.064ZM257.557 107.432C256.141 107.432 255.433 106.52 255.433 104.696V81.116H257.017V104.912C257.017 105.296 257.089 105.584 257.233 105.776C257.377 105.944 257.557 106.028 257.773 106.028C257.845 106.028 257.917 106.028 257.989 106.028C258.085 106.028 258.229 106.004 258.421 105.956L258.709 107.252C258.541 107.3 258.373 107.336 258.205 107.36C258.037 107.408 257.821 107.432 257.557 107.432ZM269.311 98.72V97.316H277.231V98.72H269.311ZM289.328 107V83.276H295.736C298.136 83.276 300.044 83.744 301.46 84.68C302.876 85.592 303.584 87.044 303.584 89.036C303.584 90.284 303.272 91.376 302.648 92.312C302.024 93.224 301.112 93.86 299.912 94.22V94.364C301.448 94.628 302.684 95.24 303.62 96.2C304.556 97.136 305.024 98.432 305.024 100.088C305.024 101.24 304.808 102.248 304.376 103.112C303.968 103.976 303.38 104.696 302.612 105.272C301.844 105.848 300.92 106.28 299.84 106.568C298.76 106.856 297.548 107 296.204 107H289.328ZM290.984 93.716H295.088C297.512 93.716 299.252 93.32 300.308 92.528C301.388 91.712 301.928 90.608 301.928 89.216C301.928 87.536 301.364 86.36 300.236 85.688C299.108 84.992 297.452 84.644 295.268 84.644H290.984V93.716ZM290.984 105.632H295.772C298.148 105.632 300.008 105.188 301.352 104.3C302.72 103.412 303.404 102.02 303.404 100.124C303.404 98.396 302.744 97.124 301.424 96.308C300.104 95.492 298.22 95.084 295.772 95.084H290.984V105.632ZM314.928 107.432C313.128 107.432 311.808 106.892 310.968 105.812C310.128 104.732 309.708 103.064 309.708 100.808V89.72H311.292V100.592C311.292 102.44 311.592 103.808 312.192 104.696C312.816 105.56 313.824 105.992 315.216 105.992C316.248 105.992 317.184 105.716 318.024 105.164C318.864 104.588 319.788 103.688 320.796 102.464V89.72H322.38V107H321.048L320.868 104.12H320.796C319.956 105.128 319.068 105.932 318.132 106.532C317.196 107.132 316.128 107.432 314.928 107.432ZM333.731 107.432C332.891 107.432 332.195 107.3 331.643 107.036C331.091 106.796 330.647 106.448 330.311 105.992C329.975 105.536 329.735 104.984 329.591 104.336C329.471 103.688 329.411 102.98 329.411 102.212V91.088H326.711V89.864L329.447 89.72L329.663 84.716H331.031V89.72H336.035V91.088H331.031V102.356C331.031 102.908 331.067 103.412 331.139 103.868C331.235 104.3 331.391 104.684 331.607 105.02C331.823 105.332 332.111 105.584 332.471 105.776C332.855 105.944 333.347 106.028 333.947 106.028C334.283 106.028 334.643 105.98 335.027 105.884C335.435 105.764 335.795 105.632 336.107 105.488L336.539 106.784C336.035 106.976 335.531 107.132 335.027 107.252C334.523 107.372 334.091 107.432 333.731 107.432ZM347.617 107V83.276H353.125C354.949 83.276 356.533 83.552 357.877 84.104C359.245 84.656 360.373 85.448 361.261 86.48C362.149 87.512 362.809 88.748 363.241 90.188C363.673 91.628 363.889 93.248 363.889 95.048C363.889 96.848 363.673 98.492 363.241 99.98C362.809 101.444 362.149 102.704 361.261 103.76C360.373 104.792 359.257 105.596 357.913 106.172C356.569 106.724 354.985 107 353.161 107H347.617ZM349.273 105.596H352.945C354.553 105.596 355.933 105.344 357.085 104.84C358.261 104.312 359.221 103.58 359.965 102.644C360.709 101.708 361.261 100.604 361.621 99.332C361.981 98.036 362.161 96.608 362.161 95.048C362.161 93.512 361.981 92.108 361.621 90.836C361.261 89.564 360.709 88.472 359.965 87.56C359.221 86.648 358.261 85.94 357.085 85.436C355.933 84.932 354.553 84.68 352.945 84.68H349.273V105.596ZM369.164 107V89.72H370.748V107H369.164ZM369.992 85.544C369.584 85.544 369.236 85.412 368.948 85.148C368.684 84.884 368.552 84.548 368.552 84.14C368.552 83.684 368.684 83.336 368.948 83.096C369.236 82.832 369.584 82.7 369.992 82.7C370.4 82.7 370.736 82.832 371 83.096C371.288 83.336 371.432 83.684 371.432 84.14C371.432 84.548 371.288 84.884 371 85.148C370.736 85.412 370.4 85.544 369.992 85.544ZM381.566 107.432C380.27 107.432 379.082 107.204 378.002 106.748C376.922 106.268 375.998 105.704 375.23 105.056L376.166 103.868C376.91 104.492 377.702 105.02 378.542 105.452C379.382 105.86 380.426 106.064 381.674 106.064C383.042 106.064 384.062 105.728 384.734 105.056C385.43 104.36 385.778 103.556 385.778 102.644C385.778 102.116 385.646 101.648 385.382 101.24C385.142 100.832 384.818 100.484 384.41 100.196C384.002 99.908 383.546 99.656 383.042 99.44C382.562 99.224 382.07 99.02 381.566 98.828C380.918 98.588 380.258 98.336 379.586 98.072C378.938 97.808 378.35 97.496 377.822 97.136C377.294 96.752 376.862 96.308 376.526 95.804C376.214 95.276 376.058 94.64 376.058 93.896C376.058 93.272 376.178 92.684 376.418 92.132C376.658 91.556 377.018 91.064 377.498 90.656C377.978 90.224 378.554 89.888 379.226 89.648C379.922 89.408 380.726 89.288 381.638 89.288C382.55 89.288 383.438 89.456 384.302 89.792C385.19 90.128 385.946 90.56 386.57 91.088L385.706 92.204C385.13 91.772 384.518 91.412 383.87 91.124C383.222 90.812 382.454 90.656 381.566 90.656C380.894 90.656 380.318 90.752 379.838 90.944C379.358 91.112 378.95 91.34 378.614 91.628C378.302 91.916 378.062 92.252 377.894 92.636C377.75 93.02 377.678 93.404 377.678 93.788C377.678 94.292 377.786 94.724 378.002 95.084C378.242 95.42 378.554 95.72 378.938 95.984C379.322 96.248 379.754 96.488 380.234 96.704C380.738 96.896 381.242 97.088 381.746 97.28C382.418 97.544 383.09 97.808 383.762 98.072C384.434 98.336 385.034 98.66 385.562 99.044C386.114 99.428 386.558 99.908 386.894 100.484C387.23 101.036 387.398 101.732 387.398 102.572C387.398 103.22 387.266 103.844 387.002 104.444C386.762 105.02 386.39 105.536 385.886 105.992C385.382 106.424 384.77 106.772 384.05 107.036C383.33 107.3 382.502 107.432 381.566 107.432ZM395.993 107.432C395.153 107.432 394.457 107.3 393.905 107.036C393.353 106.796 392.909 106.448 392.573 105.992C392.237 105.536 391.997 104.984 391.853 104.336C391.733 103.688 391.673 102.98 391.673 102.212V91.088H388.973V89.864L391.709 89.72L391.925 84.716H393.293V89.72H398.297V91.088H393.293V102.356C393.293 102.908 393.329 103.412 393.401 103.868C393.497 104.3 393.653 104.684 393.869 105.02C394.085 105.332 394.373 105.584 394.733 105.776C395.117 105.944 395.609 106.028 396.209 106.028C396.545 106.028 396.905 105.98 397.289 105.884C397.697 105.764 398.057 105.632 398.369 105.488L398.801 106.784C398.297 106.976 397.793 107.132 397.289 107.252C396.785 107.372 396.353 107.432 395.993 107.432ZM405.463 107.432C404.767 107.432 404.119 107.336 403.519 107.144C402.919 106.952 402.391 106.664 401.935 106.28C401.479 105.896 401.119 105.404 400.855 104.804C400.591 104.204 400.459 103.496 400.459 102.68C400.459 100.76 401.347 99.308 403.123 98.324C404.923 97.316 407.755 96.596 411.619 96.164C411.619 95.516 411.571 94.868 411.475 94.22C411.379 93.548 411.175 92.96 410.863 92.456C410.551 91.928 410.131 91.508 409.603 91.196C409.075 90.86 408.379 90.692 407.515 90.692C406.363 90.692 405.307 90.92 404.347 91.376C403.387 91.832 402.607 92.276 402.007 92.708L401.287 91.52C401.599 91.304 401.971 91.064 402.403 90.8C402.859 90.536 403.363 90.296 403.915 90.08C404.467 89.864 405.067 89.684 405.715 89.54C406.363 89.372 407.035 89.288 407.731 89.288C408.739 89.288 409.591 89.468 410.287 89.828C410.983 90.164 411.547 90.632 411.979 91.232C412.411 91.832 412.723 92.54 412.915 93.356C413.107 94.148 413.203 95.012 413.203 95.948V107H411.835L411.691 104.768H411.583C410.695 105.464 409.735 106.088 408.703 106.64C407.695 107.168 406.615 107.432 405.463 107.432ZM405.751 106.064C406.759 106.064 407.719 105.824 408.631 105.344C409.543 104.864 410.539 104.168 411.619 103.256V97.388C409.843 97.604 408.343 97.868 407.119 98.18C405.895 98.492 404.911 98.864 404.167 99.296C403.423 99.728 402.883 100.22 402.547 100.772C402.235 101.324 402.079 101.936 402.079 102.608C402.079 103.232 402.175 103.76 402.367 104.192C402.559 104.624 402.823 104.984 403.159 105.272C403.495 105.536 403.879 105.74 404.311 105.884C404.767 106.004 405.247 106.064 405.751 106.064ZM419.367 107V89.72H420.735L420.879 92.384H420.987C421.875 91.496 422.787 90.764 423.723 90.188C424.659 89.588 425.727 89.288 426.927 89.288C428.727 89.288 430.047 89.828 430.887 90.908C431.727 91.988 432.147 93.656 432.147 95.912V107H430.563V96.128C430.563 94.28 430.251 92.924 429.627 92.06C429.027 91.172 428.019 90.728 426.603 90.728C425.571 90.728 424.635 91.004 423.795 91.556C422.955 92.084 422.007 92.888 420.951 93.968V107H419.367ZM443.243 107.432C442.403 107.432 441.707 107.3 441.155 107.036C440.603 106.796 440.159 106.448 439.823 105.992C439.487 105.536 439.247 104.984 439.103 104.336C438.983 103.688 438.923 102.98 438.923 102.212V91.088H436.223V89.864L438.959 89.72L439.175 84.716H440.543V89.72H445.547V91.088H440.543V102.356C440.543 102.908 440.579 103.412 440.651 103.868C440.747 104.3 440.903 104.684 441.119 105.02C441.335 105.332 441.623 105.584 441.983 105.776C442.367 105.944 442.859 106.028 443.459 106.028C443.795 106.028 444.155 105.98 444.539 105.884C444.947 105.764 445.307 105.632 445.619 105.488L446.051 106.784C445.547 106.976 445.043 107.132 444.539 107.252C444.035 107.372 443.603 107.432 443.243 107.432ZM451.023 107.432C450.615 107.432 450.255 107.288 449.943 107C449.631 106.712 449.475 106.316 449.475 105.812C449.475 105.284 449.631 104.876 449.943 104.588C450.255 104.3 450.615 104.156 451.023 104.156C451.431 104.156 451.779 104.3 452.067 104.588C452.379 104.876 452.535 105.284 452.535 105.812C452.535 106.316 452.379 106.712 452.067 107C451.779 107.288 451.431 107.432 451.023 107.432Z" fill="black"/>
</svg>
