<svg width="175" height="148" viewBox="0 0 175 148" fill="none" xmlns="http://www.w3.org/2000/svg">
<path d="M4.5 100.09C2.5 98.9354 2.5 96.0487 4.5 94.894L30.7381 79.7454C32.7381 78.5907 35.2381 80.0341 35.2381 82.3435L35.2381 112.641C35.2381 114.95 32.7381 116.393 30.7381 115.239L4.5 100.09Z" fill="#56CCF2"/>
<path d="M132.056 127.106C130.056 125.951 130.056 123.065 132.056 121.91L158.294 106.761C160.294 105.607 162.794 107.05 162.794 109.359L162.794 139.657C162.794 141.966 160.294 143.409 158.294 142.255L132.056 127.106Z" fill="#56CCF2"/>
<path d="M155.255 96.8627C157.23 98.0221 157.23 100.877 155.255 102.037L129.53 117.141C127.53 118.315 125.011 116.873 125.011 114.554L125.011 84.3453C125.011 82.0261 127.53 80.584 129.53 81.7582L155.255 96.8627Z" fill="#56CCF2"/>
<path d="M155.255 45.9632C157.23 47.1227 157.23 49.9779 155.255 51.1373L129.53 66.2418C127.53 67.416 125.011 65.9739 125.011 63.6547L125.011 33.4458C125.011 31.1267 127.53 29.6845 129.53 30.8588L155.255 45.9632Z" fill="#56CCF2"/>
<path d="M111.403 71.8045C113.378 72.9639 113.378 75.8191 111.403 76.9786L85.6777 92.083C83.6778 93.2572 81.1587 91.8151 81.1587 89.496L81.1587 59.2871C81.1587 56.9679 83.6778 55.5258 85.6777 56.7L111.403 71.8045Z" fill="#56CCF2"/>
<path d="M88.2037 102.048C86.2037 100.893 86.2037 98.0064 88.2037 96.8517L114.442 81.7031C116.442 80.5484 118.942 81.9918 118.942 84.3012L118.942 114.598C118.942 116.908 116.442 118.351 114.442 117.196L88.2037 102.048Z" fill="#56CCF2"/>
<path d="M132.056 76.9896C130.056 75.8349 130.056 72.9482 132.056 71.7935L158.294 56.6449C160.294 55.4902 162.794 56.9336 162.794 59.243L162.794 89.5401C162.794 91.8495 160.294 93.2929 158.294 92.1382L132.056 76.9896Z" fill="#56CCF2"/>
<path d="M132.056 26.0901C130.056 24.9354 130.056 22.0487 132.056 20.894L158.294 5.74542C160.294 4.59072 162.794 6.03409 162.794 8.34349L162.794 38.6406C162.794 40.95 160.294 42.3934 158.294 41.2387L132.056 26.0901Z" fill="#56CCF2"/>
<path d="M88.2037 51.1483C86.2037 49.9936 86.2037 47.1069 88.2037 45.9522L114.442 30.8036C116.442 29.6489 118.942 31.0923 118.942 33.4017L118.942 63.6988C118.942 66.0082 116.442 67.4516 114.442 66.2969L88.2037 51.1483Z" fill="#56CCF2"/>
<path d="M44.3519 76.9896C42.3519 75.8349 42.3519 72.9482 44.3519 71.7935L70.59 56.6449C72.59 55.4902 75.09 56.9336 75.09 59.243L75.09 89.5401C75.09 91.8495 72.59 93.2929 70.59 92.1382L44.3519 76.9896Z" fill="#56CCF2"/>
</svg>
