<svg width="403" height="45" viewBox="0 0 403 45" fill="none" xmlns="http://www.w3.org/2000/svg">
<path d="M0.4 44V1.76H9.872C13.1147 1.76 15.9307 2.272 18.32 3.296C20.7093 4.27733 22.672 5.70667 24.208 7.584C25.7867 9.41867 26.9387 11.6373 27.664 14.24C28.432 16.8 28.816 19.6373 28.816 22.752C28.816 25.9093 28.432 28.7893 27.664 31.392C26.9387 33.9947 25.7867 36.2347 24.208 38.112C22.672 39.9467 20.7093 41.3973 18.32 42.464C15.9307 43.488 13.1147 44 9.872 44H0.4ZM2.448 42.208H9.616C12.6027 42.208 15.1627 41.7173 17.296 40.736C19.472 39.7547 21.2427 38.4107 22.608 36.704C24.016 34.9547 25.04 32.8853 25.68 30.496C26.32 28.1067 26.64 25.5253 26.64 22.752C26.64 19.9787 26.32 17.4187 25.68 15.072C25.04 12.7253 24.016 10.6987 22.608 8.992C21.2427 7.28533 19.472 5.96267 17.296 5.024C15.1627 4.04266 12.6027 3.552 9.616 3.552H2.448V42.208ZM51.5875 44V1.76H74.2435V3.552H53.6355V20.576H70.9155V22.368H53.6355V42.208H74.8835V44H51.5875ZM97.025 44V1.76H99.073V42.208H118.913V44H97.025ZM144.523 18.656L141.515 27.104H157.451L154.507 18.656C153.611 16.096 152.758 13.664 151.947 11.36C151.179 9.056 150.411 6.58133 149.643 3.936H149.387C148.619 6.58133 147.83 9.056 147.019 11.36C146.251 13.664 145.419 16.096 144.523 18.656ZM133.515 44L148.619 1.76H150.411L165.515 44H163.339L158.091 28.896H140.875L135.563 44H133.515ZM191.866 44V26.592L179.194 1.76H181.37L188.154 15.456C188.922 16.992 189.668 18.5067 190.394 20C191.119 21.4933 191.908 23.008 192.762 24.544H193.018C193.871 23.008 194.682 21.4933 195.45 20C196.26 18.5067 197.028 16.992 197.753 15.456L204.538 1.76H206.586L193.914 26.592V44H191.866ZM241.001 44.768C238.313 44.768 235.86 44.256 233.641 43.232C231.465 42.1653 229.609 40.672 228.073 38.752C226.537 36.832 225.342 34.528 224.489 31.84C223.636 29.1093 223.209 26.08 223.209 22.752C223.209 19.424 223.636 16.416 224.489 13.728C225.385 11.04 226.622 8.75733 228.201 6.88C229.822 5.00267 231.764 3.552 234.025 2.528C236.329 1.504 238.868 0.991997 241.641 0.991997C243.049 0.991997 244.329 1.14133 245.481 1.44C246.633 1.73866 247.657 2.144 248.553 2.656C249.492 3.12533 250.302 3.65866 250.985 4.256C251.71 4.85333 252.35 5.42933 252.905 5.984L251.625 7.392C250.516 6.15467 249.172 5.10933 247.593 4.256C246.014 3.36 244.03 2.912 241.641 2.912C239.124 2.912 236.862 3.38133 234.857 4.32C232.852 5.216 231.145 6.53866 229.737 8.288C228.329 9.99467 227.241 12.0853 226.473 14.56C225.748 16.992 225.385 19.7227 225.385 22.752C225.385 25.7813 225.748 28.5333 226.473 31.008C227.198 33.4827 228.222 35.5947 229.545 37.344C230.91 39.0933 232.553 40.4587 234.473 41.44C236.436 42.3787 238.654 42.848 241.129 42.848C243.177 42.848 245.097 42.5493 246.889 41.952C248.681 41.3547 250.132 40.5013 251.241 39.392V25.44H240.745V23.648H253.289V40.032C252.009 41.44 250.324 42.592 248.233 43.488C246.185 44.3413 243.774 44.768 241.001 44.768ZM277.213 44V1.76H288.861C290.951 1.76 292.829 1.97333 294.493 2.4C296.157 2.784 297.565 3.424 298.717 4.32C299.911 5.17333 300.829 6.28267 301.469 7.648C302.109 9.01333 302.429 10.6773 302.429 12.64C302.429 16.0107 301.405 18.656 299.357 20.576C297.351 22.4533 294.578 23.5627 291.037 23.904L303.069 44H300.637L288.733 24.032H279.26V44H277.213ZM279.26 22.24H288.093C292.018 22.24 295.026 21.472 297.117 19.936C299.207 18.3573 300.253 15.9253 300.253 12.64C300.253 9.312 299.207 6.96533 297.117 5.6C295.026 4.23466 292.018 3.552 288.093 3.552H279.26V22.24ZM329.461 18.656L326.453 27.104H342.389L339.445 18.656C338.549 16.096 337.695 13.664 336.885 11.36C336.117 9.056 335.349 6.58133 334.581 3.936H334.325C333.557 6.58133 332.767 9.056 331.957 11.36C331.189 13.664 330.357 16.096 329.461 18.656ZM318.453 44L333.557 1.76H335.349L350.453 44H348.277L343.029 28.896H325.812L320.501 44H318.453ZM370.275 44V1.76H373.603L382.691 27.36L386.147 36.96H386.403C387 35.3387 387.555 33.7387 388.067 32.16C388.579 30.5813 389.134 28.9813 389.731 27.36L398.819 1.76H402.147V44H400.099V14.56C400.099 12.896 400.12 11.0827 400.163 9.12C400.206 7.15733 400.27 5.30133 400.355 3.552H400.099L396.835 12.896L387.299 39.264H385.123L375.523 12.896L372.195 3.552H371.939C372.024 5.30133 372.088 7.15733 372.131 9.12C372.174 11.0827 372.195 12.896 372.195 14.56V44H370.275Z" fill="#F2F2F2"/>
</svg>
